HIERARCHY
ROOT Hips
{
	OFFSET 53.173599 -3.258324 83.802498
	CHANNELS 6 Xposition Yposition Zposition Xrotation Yrotation Zrotation
	JOINT spine
	{
		OFFSET 0.000000 -0.342408 5.954384
		CHANNELS 3 Xrotation Yrotation Zrotation
		JOINT spine1
		{
			OFFSET 0.000000 -0.000001 8.856018
			CHANNELS 3 Xrotation Yrotation Zrotation
			JOINT spine2
			{
				OFFSET 0.000000 -0.000001 8.485672
				CHANNELS 3 Xrotation Yrotation Zrotation
				JOINT Neck
				{
					OFFSET 0.000000 -1.038704 21.786301
					CHANNELS 3 Xrotation Yrotation Zrotation
					JOINT Head
					{
						OFFSET 0.000000 -0.000001 6.582199
						CHANNELS 3 Xrotation Yrotation Zrotation
						End Site
						{
							OFFSET 0.000000 5.254357 15.932602
						}
					}
				}
				JOINT RightShoulder
				{
					OFFSET -3.573071 0.497524 9.163864
					CHANNELS 3 Xrotation Yrotation Zrotation
					JOINT RightArm
					{
						OFFSET 0.000000 -0.000002 12.019196
						CHANNELS 3 Xrotation Yrotation Zrotation
						JOINT RightArmRoll
						{
							OFFSET 0.000000 -0.000001 6.067551
							CHANNELS 3 Xrotation Yrotation Zrotation
							JOINT RightForeArm
							{
								OFFSET 0.000000 -0.000003 17.672607
								CHANNELS 3 Xrotation Yrotation Zrotation
								JOINT RightForeArmRoll
								{
									OFFSET 0.000000 -0.000001 6.808716
									CHANNELS 3 Xrotation Yrotation Zrotation
									JOINT RightHand
									{
										OFFSET 0.000000 -0.000002 13.663605
										CHANNELS 3 Xrotation Yrotation Zrotation
										End Site
										{
											OFFSET 0.000000 0.000000 0.100006
										}
									}
								}
							}
						}
					}
				}
				JOINT LeftShoulder
				{
					OFFSET 3.573071 0.497524 9.163864
					CHANNELS 3 Xrotation Yrotation Zrotation
					JOINT LeftArm
					{
						OFFSET 0.000000 -0.000002 12.019196
						CHANNELS 3 Xrotation Yrotation Zrotation
						JOINT LeftArmRoll
						{
							OFFSET 0.000000 -0.000001 6.067551
							CHANNELS 3 Xrotation Yrotation Zrotation
							JOINT LeftForeArm
							{
								OFFSET 0.000000 -0.000003 17.672607
								CHANNELS 3 Xrotation Yrotation Zrotation
								JOINT LeftForeArmRoll
								{
									OFFSET 0.000000 -0.000001 6.808716
									CHANNELS 3 Xrotation Yrotation Zrotation
									JOINT LeftHand
									{
										OFFSET 0.000000 -0.000002 13.663605
										CHANNELS 3 Xrotation Yrotation Zrotation
										End Site
										{
											OFFSET 0.000000 0.000000 0.100006
										}
									}
								}
							}
						}
					}
				}
			}
		}
	}
	JOINT RightUpLeg
	{
		OFFSET -5.277740 0.811858 -0.967796
		CHANNELS 3 Xrotation Yrotation Zrotation
		JOINT RightUpLegRoll
		{
			OFFSET 0.000000 -0.000003 16.021400
			CHANNELS 3 Xrotation Yrotation Zrotation
			JOINT RightLeg
			{
				OFFSET 0.000000 0.000003 -19.840096
				CHANNELS 3 Xrotation Yrotation Zrotation
				JOINT RightLegRoll
				{
					OFFSET 0.000000 -0.000003 19.904999
					CHANNELS 3 Xrotation Yrotation Zrotation
					JOINT RightFoot
					{
						OFFSET 0.000000 -0.000003 16.567497
						CHANNELS 3 Xrotation Yrotation Zrotation
						JOINT RightToeBase
						{
							OFFSET 0.000000 -0.000002 13.849602
							CHANNELS 3 Xrotation Yrotation Zrotation
							End Site
							{
								OFFSET 0.005871 0.773116 6.707275
							}
						}
					}
				}
			}
		}
	}
	JOINT LeftUpLeg
	{
		OFFSET 5.277740 0.811858 -0.967796
		CHANNELS 3 Xrotation Yrotation Zrotation
		JOINT LeftUpLegRoll
		{
			OFFSET 0.000000 -0.000003 16.021500
			CHANNELS 3 Xrotation Yrotation Zrotation
			JOINT LeftLeg
			{
				OFFSET 0.000000 -0.000003 19.839996
				CHANNELS 3 Xrotation Yrotation Zrotation
				JOINT LeftLegRoll
				{
					OFFSET 0.000000 -0.000003 20.089005
					CHANNELS 3 Xrotation Yrotation Zrotation
					JOINT LeftFoot
					{
						OFFSET 0.000000 -0.000003 16.383499
						CHANNELS 3 Xrotation Yrotation Zrotation
						JOINT LeftToeBase
						{
							OFFSET 0.000000 -0.000002 13.849594
							CHANNELS 3 Xrotation Yrotation Zrotation
							End Site
							{
								OFFSET -0.026310 0.773116 6.707275
							}
						}
					}
				}
			}
		}
	}
}
MOTION
Frames: 8
Frame Time: 0.041667
51.985100 -2.402272 84.198006 -11.439423 -4.103730 -0.007148 1.048580 0.331783 0.038330 6.087147 0.685598 0.061309 7.732298 0.686223 0.052215 28.711253 9.405511 -1.445818 21.981596 -2.914063 -0.468713 -7.123950 -60.447461 -8.465140 -35.715708 -128.566577 -53.852630 0.000001 -0.000000 -0.000001 -0.027159 3.639889 -1.990776 -0.000001 0.000011 -3.011608 -5.000154 -7.999919 0.000002 -11.877842 58.206667 13.954024 -29.569422 136.173618 54.228683 0.000002 0.000012 -0.000001 -0.026757 -3.640560 1.990719 0.000001 -0.000006 3.011600 -5.000169 7.999937 -0.000015 1.299227 -172.353936 7.864091 -179.999991 0.000005 -1.117003 165.601393 -4.032671 -0.956348 0.000002 0.000009 0.213891 71.126906 6.852741 2.069979 25.456928 -7.355191 0.000007 5.877335 -174.979392 3.088326 -0.000004 -0.000004 -1.134960 -8.073999 1.960567 0.369916 0.000006 -0.000003 -0.069000 68.526325 -6.901288 -2.121435 25.456870 7.347760 0.000006 
51.977501 -2.384943 84.197105 -11.390717 -4.105245 -0.000704 1.048319 0.331325 0.038330 6.087547 0.683856 0.061308 7.732696 0.684484 0.052213 28.745128 9.445560 -1.456587 21.961865 -2.943127 -0.468428 -7.100261 -60.434975 -8.436348 -35.674081 -128.555198 -53.813192 -0.000000 0.000000 -0.000002 -0.027159 3.639889 -1.990772 -0.000000 0.000011 -3.011613 -5.000153 -7.999918 0.000003 -11.873946 58.218661 13.949927 -29.585463 136.161105 54.229844 0.000001 0.000013 0.000000 -0.026760 -3.640560 1.990722 -0.000001 -0.000005 3.011600 -5.000169 7.999938 -0.000014 1.241562 -172.356777 7.845637 -179.999991 0.000005 -1.115993 165.600190 -4.026840 -0.955941 0.000002 0.000009 0.213890 71.133633 6.852763 2.069967 25.456928 -7.355192 0.000007 5.820242 -174.975895 3.095563 -0.000004 -0.000004 -1.134270 -8.075310 1.956729 0.369917 0.000006 -0.000003 -0.068984 68.529795 -6.901273 -2.121416 25.456875 7.347760 0.000006 
51.974899 -2.374320 84.196907 -11.342006 -4.106720 0.005702 1.047996 0.330904 0.038330 6.087844 0.682189 0.061306 7.732993 0.682820 0.052209 28.780173 9.485919 -1.467682 21.940663 -2.972946 -0.468165 -7.076173 -60.422708 -8.407106 -35.632373 -128.544912 -53.773717 -0.000001 -0.000001 -0.000001 -0.027159 3.639889 -1.990776 0.000001 0.000011 -3.011609 -5.000156 -7.999919 0.000004 -11.869768 58.230559 13.945499 -29.602398 136.147841 54.232180 0.000000 0.000013 -0.000000 -0.026758 -3.640560 1.990723 0.000001 -0.000006 3.011599 -5.000171 7.999938 -0.000013 1.183866 -172.360616 7.827112 -179.999991 0.000005 -1.114996 165.598988 -4.021006 -0.955536 0.000002 0.000009 0.213891 71.140457 6.852757 2.070046 25.456926 -7.355192 0.000007 5.763262 -174.973409 3.102732 -0.000005 -0.000004 -1.133580 -8.076340 1.952863 0.369916 0.000006 -0.000003 -0.068958 68.533271 -6.901260 -2.121397 25.456873 7.347760 0.000006 
51.990398 -2.354573 84.191200 -11.293299 -4.108170 0.012080 1.047627 0.330507 0.038330 6.088081 0.680574 0.061306 7.733232 0.681210 0.052204 28.816076 9.526442 -1.479009 21.918557 -3.003301 -0.467924 -7.051800 -60.410448 -8.377529 -35.591699 -128.533888 -53.735813 -0.000001 -0.000001 -0.000003 -0.027159 3.639888 -1.990777 0.000000 0.000011 -3.011610 -5.000151 -7.999917 0.000003 -11.865453 58.242580 13.940916 -29.619112 136.135506 54.234219 0.000003 0.000013 -0.000002 -0.026759 -3.640560 1.990718 -0.000001 -0.000005 3.011602 -5.000171 7.999937 -0.000011 1.126166 -172.364468 7.808552 -179.999991 0.000005 -1.113999 165.597786 -4.015175 -0.955129 0.000002 0.000009 0.213890 71.147280 6.852745 2.070027 25.456928 -7.355193 0.000007 5.706364 -174.969912 3.110034 -0.000004 -0.000004 -1.132910 -8.077184 1.948967 0.369914 0.000006 -0.000003 -0.068927 68.536645 -6.901278 -2.121390 25.456873 7.347760 0.000006 
51.983894 -2.343445 84.197601 -11.244593 -4.109601 0.018445 1.047225 0.330124 0.038330 6.088280 0.678990 0.061304 7.733427 0.679629 0.052199 28.852324 9.567166 -1.490507 21.895870 -3.033967 -0.467712 -7.027266 -60.398209 -8.347773 -35.550520 -128.523806 -53.697253 -0.000000 -0.000000 -0.000000 -0.027159 3.639889 -1.990774 0.000001 0.000011 -3.011610 -5.000155 -7.999917 0.000004 -11.861005 58.254506 13.936169 -29.635972 136.123225 54.236569 0.000002 0.000013 -0.000000 -0.026760 -3.640560 1.990719 -0.000001 -0.000005 3.011598 -5.000173 7.999938 -0.000012 1.068466 -172.367310 7.790009 -179.999991 0.000006 -1.113001 165.596584 -4.009331 -0.955730 0.000001 0.000009 0.213889 71.154124 6.852768 2.070008 25.456926 -7.355192 0.000007 5.649502 -174.966456 3.117341 -0.000005 -0.000004 -1.132241 -8.077905 1.945073 0.369913 0.000006 -0.000003 -0.068892 68.540026 -6.901293 -2.121282 25.456875 7.347760 0.000006 
51.974495 -2.333221 84.199600 -11.195882 -4.111018 0.024807 1.046827 0.329745 0.038330 6.088468 0.677414 0.061302 7.733616 0.678055 0.052194 28.888804 9.607839 -1.502072 21.873090 -3.064707 -0.467513 -7.002688 -60.385948 -8.317967 -35.510205 -128.512987 -53.659817 0.000001 -0.000001 -0.000002 -0.027158 3.639889 -1.990775 -0.000001 0.000011 -3.011612 -5.000154 -7.999918 0.000005 -11.856577 58.266547 13.931451 -29.653177 136.110043 54.239413 0.000002 0.000013 0.000000 -0.026761 -3.640560 1.990718 -0.000003 -0.000006 3.011602 -5.000170 7.999937 -0.000013 1.010759 -172.371175 7.771453 -179.999991 0.000005 -1.112004 165.595396 -4.003498 -0.955321 0.000002 0.000009 0.213889 71.161036 6.852723 2.070076 25.456931 -7.355191 0.000006 5.592660 -174.962959 3.124645 -0.000004 -0.000004 -1.131570 -8.078606 1.941168 0.369912 0.000006 -0.000003 -0.068857 68.543380 -6.901273 -2.121268 25.456873 7.347760 0.000006 
51.979301 -2.316207 84.195198 -11.147170 -4.112441 0.031180 1.046438 0.329358 0.038330 6.088677 0.675822 0.061302 7.733826 0.676466 0.052189 28.925100 9.648414 -1.513629 21.850513 -3.095297 -0.467351 -6.978232 -60.373688 -8.288295 -35.468985 -128.502960 -53.621220 -0.000001 -0.000000 -0.000002 -0.027157 3.639889 -1.990776 -0.000001 0.000011 -3.011607 -5.000151 -7.999918 0.000002 -11.852174 58.278555 13.926757 -29.670045 136.097762 54.241667 0.000003 0.000013 0.000000 -0.026757 -3.640559 1.990721 -0.000001 -0.000005 3.011601 -5.000173 7.999937 -0.000011 0.953044 -172.375041 7.752919 -179.999991 0.000006 -1.110993 165.594193 -3.997667 -0.954914 0.000002 0.000009 0.213890 71.167873 6.852740 2.069959 25.456923 -7.355192 0.000007 5.535797 -174.959489 3.131932 -0.000005 -0.000004 -1.130900 -8.079359 1.937274 0.369911 0.000006 -0.000003 -0.068824 68.546658 -6.901280 -2.121366 25.456873 7.347760 0.000006 
51.983200 -2.306190 84.194603 -11.098459 -4.113862 0.037576 1.046085 0.328956 0.038330 6.088933 0.674193 0.061300 7.734072 0.674841 0.052185 28.960801 9.688926 -1.525147 21.828728 -3.125497 -0.467211 -6.954013 -60.361401 -8.258893 -35.428061 -128.491950 -53.583012 0.000002 -0.000000 -0.000001 -0.027157 3.639890 -1.990773 -0.000001 0.000011 -3.011613 -5.000153 -7.999918 0.000004 -11.847875 58.290474 13.922176 -29.686673 136.085427 54.243665 0.000003 0.000013 -0.000001 -0.026761 -3.640559 1.990719 -0.000002 -0.000006 3.011600 -5.000171 7.999938 -0.000015 0.895339 -172.377924 7.734453 -179.999991 0.000006 -1.109996 165.593019 -3.990868 -0.954259 0.000002 0.000009 0.213890 71.174697 6.852726 2.070036 25.456926 -7.355190 0.000007 5.478873 -174.956033 3.139195 -0.000004 -0.000004 -1.130220 -8.080250 1.933388 0.369909 0.000006 -0.000003 -0.068794 68.550121 -6.901268 -2.121245 25.456873 7.347760 0.000006 
